<svg xmlns="http://www.w3.org/2000/svg" viewBox="0 0 14 14" fill="none"><path d="M7.00004 0.333328C3.32671 0.333328 0.333374 3.32666 0.333374 7C0.333374 10.6733 3.32671 13.6667 7.00004 13.6667C10.6734 13.6667 13.6667 10.6733 13.6667 7C13.6667 3.32666 10.6734 0.333328 7.00004 0.333328ZM9.90004 9.38C9.80671 9.54 9.64004 9.62666 9.46671 9.62666C9.38004 9.62666 9.29337 9.60666 9.21337 9.55333L7.14671 8.31999C6.63337 8.01333 6.25337 7.33999 6.25337 6.74666V4.01333C6.25337 3.74 6.48004 3.51333 6.75337 3.51333C7.02671 3.51333 7.25337 3.74 7.25337 4.01333V6.74666C7.25337 6.98666 7.45337 7.33999 7.66004 7.45999L9.72671 8.69333C9.96671 8.83333 10.0467 9.13999 9.90004 9.38Z" fill="currentColor"/></svg>
