<svg xmlns="http://www.w3.org/2000/svg" viewBox="0 0 20 20" fill="none"><path d="M10 18.9583C5.05835 18.9583 1.04169 14.9417 1.04169 10C1.04169 5.05833 5.05835 1.04166 10 1.04166C14.9417 1.04166 18.9584 5.05833 18.9584 10C18.9584 14.9417 14.9417 18.9583 10 18.9583ZM10 2.29166C5.75002 2.29166 2.29169 5.75 2.29169 10C2.29169 14.25 5.75002 17.7083 10 17.7083C14.25 17.7083 17.7084 14.25 17.7084 10C17.7084 5.75 14.25 2.29166 10 2.29166Z" fill="currentColor"/><path d="M7.50001 18.125H6.66668C6.32501 18.125 6.04168 17.8417 6.04168 17.5C6.04168 17.1583 6.30835 16.8833 6.65001 16.875C5.34168 12.4083 5.34168 7.59167 6.65001 3.125C6.30835 3.11667 6.04168 2.84167 6.04168 2.5C6.04168 2.15833 6.32501 1.875 6.66668 1.875H7.50001C7.70001 1.875 7.89168 1.975 8.00835 2.13333C8.12501 2.3 8.15835 2.50833 8.09168 2.7C6.52501 7.40833 6.52501 12.5917 8.09168 17.3083C8.15835 17.5 8.12501 17.7083 8.00835 17.875C7.89168 18.025 7.70001 18.125 7.50001 18.125Z" fill="currentColor"/><path d="M12.5 18.125C12.4333 18.125 12.3667 18.1167 12.3 18.0917C11.975 17.9833 11.7917 17.625 11.9083 17.3C13.475 12.5917 13.475 7.40834 11.9083 2.69167C11.8 2.36667 11.975 2.00834 12.3 1.9C12.6333 1.79167 12.9833 1.96667 13.0917 2.29167C14.75 7.25834 14.75 12.725 13.0917 17.6833C13.0083 17.9583 12.7583 18.125 12.5 18.125Z" fill="currentColor"/><path d="M10 14.3333C7.675 14.3333 5.35833 14.0083 3.125 13.35C3.11667 13.6833 2.84167 13.9583 2.5 13.9583C2.15833 13.9583 1.875 13.675 1.875 13.3333V12.5C1.875 12.3 1.975 12.1083 2.13333 11.9917C2.3 11.875 2.50833 11.8417 2.7 11.9083C7.40833 13.475 12.6 13.475 17.3083 11.9083C17.5 11.8417 17.7083 11.875 17.875 11.9917C18.0417 12.1083 18.1333 12.3 18.1333 12.5V13.3333C18.1333 13.675 17.85 13.9583 17.5083 13.9583C17.1667 13.9583 16.8917 13.6917 16.8833 13.35C14.6417 14.0083 12.325 14.3333 10 14.3333Z" fill="currentColor"/><path d="M17.5 8.125C17.4334 8.125 17.3667 8.11666 17.3 8.09166C12.5917 6.525 7.40002 6.525 2.69169 8.09166C2.35836 8.2 2.00836 8.025 1.90002 7.7C1.80002 7.36666 1.97502 7.01666 2.30002 6.90833C7.26669 5.25 12.7334 5.25 17.6917 6.90833C18.0167 7.01666 18.2 7.375 18.0834 7.7C18.0084 7.95833 17.7584 8.125 17.5 8.125Z" fill="currentColor"/></svg>
