<svg xmlns="http://www.w3.org/2000/svg" viewBox="0 0 24 24" fill="none"><path d="M12 16.25C9.38 16.25 7.25 14.12 7.25 11.5V6C7.25 3.38 9.38 1.25 12 1.25C14.62 1.25 16.75 3.38 16.75 6V11.5C16.75 14.12 14.62 16.25 12 16.25Z" fill="currentColor"/><path d="M12 19.75C7.36998 19.75 3.59998 15.98 3.59998 11.35V9.65002C3.59998 9.24002 3.93998 8.90002 4.34998 8.90002C4.75998 8.90002 5.09998 9.24002 5.09998 9.65002V11.35C5.09998 15.15 8.19998 18.25 12 18.25C15.8 18.25 18.9 15.15 18.9 11.35V9.65002C18.9 9.24002 19.24 8.90002 19.65 8.90002C20.06 8.90002 20.4 9.24002 20.4 9.65002V11.35C20.4 15.98 16.63 19.75 12 19.75Z" fill="currentColor"/><path d="M12 22.75C11.59 22.75 11.25 22.41 11.25 22V19C11.25 18.59 11.59 18.25 12 18.25C12.41 18.25 12.75 18.59 12.75 19V22C12.75 22.41 12.41 22.75 12 22.75Z" fill="currentColor"/></svg>
