<svg xmlns="http://www.w3.org/2000/svg" viewBox="0 0 20 20" fill="none"><path d="M14.7166 18.8917C14.2749 18.8917 13.7083 18.75 12.9999 18.3333L10.5083 16.8583C10.2499 16.7083 9.74994 16.7083 9.49994 16.8583L6.99994 18.3333C5.52493 19.2083 4.65827 18.8583 4.2666 18.575C3.88327 18.2917 3.28327 17.5667 3.67494 15.9L4.2666 13.3417C4.33327 13.075 4.19994 12.6167 3.99994 12.4167L1.93327 10.35C0.899935 9.31667 0.983269 8.43334 1.12494 8.00001C1.2666 7.56667 1.7166 6.80001 3.14994 6.55834L5.80827 6.11667C6.05827 6.07501 6.4166 5.80834 6.52494 5.58334L7.99994 2.64167C8.6666 1.30001 9.5416 1.10001 9.99994 1.10001C10.4583 1.10001 11.3333 1.30001 11.9999 2.64167L13.4666 5.57501C13.5833 5.80001 13.9416 6.06667 14.1916 6.10834L16.8499 6.55001C18.2916 6.79167 18.7416 7.55834 18.8749 7.99167C19.0083 8.42501 19.0916 9.30834 18.0666 10.3417L15.9999 12.4167C15.7999 12.6167 15.6749 13.0667 15.7333 13.3417L16.3249 15.9C16.7083 17.5667 16.1166 18.2917 15.7333 18.575C15.5249 18.725 15.1916 18.8917 14.7166 18.8917Z" fill="currentColor"/></svg>
