<svg xmlns="http://www.w3.org/2000/svg" viewBox="0 0 20 20" fill="none"><path d="M7.2 18.125H4.175C2.625 18.125 1.875 17.4083 1.875 15.925V4.075C1.875 2.59167 2.625 1.875 4.175 1.875H7.2C8.75 1.875 9.5 2.59167 9.5 4.075V15.925C9.5 17.4083 8.75 18.125 7.2 18.125Z" fill="currentColor"/><path d="M15.825 18.125H12.8C11.25 18.125 10.5 17.4083 10.5 15.925V4.075C10.5 2.59167 11.25 1.875 12.8 1.875H15.825C17.375 1.875 18.125 2.59167 18.125 4.075V15.925C18.125 17.4083 17.375 18.125 15.825 18.125Z" fill="currentColor"/></svg>
