<svg xmlns="http://www.w3.org/2000/svg" viewBox="0 0 20 20" fill="none"><path d="M10.1 11.275C10.0834 11.275 10.0584 11.275 10.0417 11.275C10.0167 11.275 9.98336 11.275 9.95836 11.275C8.06669 11.2167 6.65002 9.74167 6.65002 7.925C6.65002 6.075 8.15836 4.56667 10.0084 4.56667C11.8584 4.56667 13.3667 6.075 13.3667 7.925C13.3584 9.75 11.9334 11.2167 10.125 11.275C10.1084 11.275 10.1084 11.275 10.1 11.275Z" fill="currentColor"/><path d="M10 18.9583C7.75836 18.9583 5.61669 18.125 3.95836 16.6083C3.80836 16.475 3.74169 16.275 3.75836 16.0833C3.86669 15.0917 4.48336 14.1667 5.50836 13.4833C7.99169 11.8333 12.0167 11.8333 14.4917 13.4833C15.5167 14.175 16.1334 15.0917 16.2417 16.0833C16.2667 16.2833 16.1917 16.475 16.0417 16.6083C14.3834 18.125 12.2417 18.9583 10 18.9583Z" fill="currentColor"/><path d="M9.99996 18.9583C5.05829 18.9583 1.04163 14.9417 1.04163 10C1.04163 5.05833 5.05829 1.04166 9.99996 1.04166C14.9416 1.04166 18.9583 5.05833 18.9583 10C18.9583 14.9417 14.9416 18.9583 9.99996 18.9583ZM9.99996 2.29166C5.74996 2.29166 2.29163 5.75 2.29163 10C2.29163 14.25 5.74996 17.7083 9.99996 17.7083C14.25 17.7083 17.7083 14.25 17.7083 10C17.7083 5.75 14.25 2.29166 9.99996 2.29166Z" fill="currentColor"/></svg>
