<svg xmlns="http://www.w3.org/2000/svg" viewBox="0 0 100 100" fill="none">
<rect x="17.5625" y="17.5275" width="82.4375" height="82.4725" fill="currentColor"/>
<path fill="#EB122F" d="M93.789 82.6014H89.4839V74.7381H81.5378V82.6014H77.2115V62.9953H81.5166V70.7523H89.4627V62.9953H93.7678V82.6014H93.789ZM72.6283 81.3373C71.2791 82.3656 69.544 82.859 67.4239 82.859C65.0681 82.859 63.1833 82.302 61.7268 81.2088C60.2703 80.1165 59.5422 78.359 59.5206 76.3878H63.6544C63.74 78.166 65.2822 79.3661 67.4239 79.3661C69.3298 79.3661 70.5294 78.6377 70.5294 77.0949C70.5294 75.7023 69.3943 75.1453 66.4601 74.4165C64.7683 73.9881 63.9113 73.731 62.6261 73.1308C60.8914 72.2744 60.0345 71.031 59.9276 68.7386C59.8848 67.1318 60.5488 65.5673 61.7484 64.4746C62.9692 63.3173 64.7038 62.7604 66.9528 62.7604C69.1162 62.7604 70.8508 63.2962 72.1789 64.3672C73.5065 65.4383 74.2133 66.8955 74.2561 68.7594H70.1012C70.0795 67.0885 68.9232 66.2528 67.0385 66.2528C65.2177 66.2528 64.1043 67.2175 64.1043 68.6096C64.1043 69.3168 64.3612 69.8309 64.9184 70.1741C65.4751 70.5169 66.4817 70.8172 67.9594 71.16C70.2296 71.7386 71.9215 72.4453 72.9926 73.2598C74.0636 74.0742 74.6632 75.2743 74.6632 76.8812C74.6844 78.8303 73.9987 80.3303 72.6283 81.3373ZM58.1285 66.9811H52.1528V82.601H47.8477V66.9595H41.872V62.9741H58.1064V66.9811H58.1285ZM35.7038 82.6231L31.506 76.3233H28.1219V82.6014H23.8168V62.9953H32.7696C35.2539 62.9953 37.2031 63.7025 38.4879 64.9882C39.5802 66.081 40.1797 67.6238 40.1797 69.4665V69.531C40.1797 72.7023 38.4663 74.6736 35.9819 75.6166L40.7793 82.6231H35.7038ZM17.5625 100H100V17.5275H17.5841L17.5625 100Z"/>
<path fill="#EB122F" d="M32.3837 66.8955H28.1002V72.5305H32.4693C34.5682 72.5305 35.7678 71.4161 35.7678 69.7452V69.6803C35.7678 67.838 34.4826 66.8743 32.3837 66.8955Z"/>
<path fill="#EB122F" d="M82.4375 0H0V82.5586H11.3514V11.3351H82.4375V0Z"/>
</svg>
